<mxfile host="app.diagrams.net" modified="2024-03-25T14:22:37.639Z" agent="Mozilla/5.0 (Windows NT 10.0; Win64; x64) AppleWebKit/537.36 (KHTML, like Gecko) Chrome/123.0.0.0 Safari/537.36" etag="e_mshkpEd-wVGTgi-p9x" version="24.1.0" type="github">
  <diagram name="StrÃ¡nka-1" id="7OuR9GHxpXgs6eLxH3t9">
    <mxGraphModel dx="2390" dy="1287" grid="1" gridSize="10" guides="1" tooltips="1" connect="1" arrows="1" fold="1" page="1" pageScale="1" pageWidth="4681" pageHeight="3300" math="0" shadow="0">
      <root>
        <mxCell id="0" />
        <mxCell id="1" parent="0" />
        <mxCell id="nHqA-4sxTTQiNWwl88GU-1" value="" style="verticalLabelPosition=bottom;html=1;verticalAlign=top;align=center;shape=mxgraph.floorplan.room;fillColor=strokeColor;rotation=-90;" vertex="1" parent="1">
          <mxGeometry x="1792.5" y="1362.5" width="1075" height="580" as="geometry" />
        </mxCell>
        <mxCell id="nHqA-4sxTTQiNWwl88GU-5" value="" style="verticalLabelPosition=bottom;html=1;verticalAlign=top;align=center;shape=mxgraph.floorplan.doorRight;aspect=fixed;rotation=90;" vertex="1" parent="1">
          <mxGeometry x="2530" y="1190" width="80" height="85" as="geometry" />
        </mxCell>
        <mxCell id="nHqA-4sxTTQiNWwl88GU-6" value="" style="verticalLabelPosition=bottom;html=1;verticalAlign=top;align=center;shape=mxgraph.floorplan.flat_tv;" vertex="1" parent="1">
          <mxGeometry x="2220" y="1210" width="190" height="10" as="geometry" />
        </mxCell>
        <mxCell id="nHqA-4sxTTQiNWwl88GU-8" value="" style="verticalLabelPosition=bottom;html=1;verticalAlign=top;align=center;shape=mxgraph.floorplan.table;" vertex="1" parent="1">
          <mxGeometry x="2115" y="1320" width="120" height="60" as="geometry" />
        </mxCell>
        <mxCell id="nHqA-4sxTTQiNWwl88GU-9" value="" style="verticalLabelPosition=bottom;html=1;verticalAlign=top;align=center;shape=mxgraph.floorplan.table;" vertex="1" parent="1">
          <mxGeometry x="2065" y="1400" width="100" height="50" as="geometry" />
        </mxCell>
        <mxCell id="nHqA-4sxTTQiNWwl88GU-13" value="" style="verticalLabelPosition=bottom;html=1;verticalAlign=top;align=center;shape=mxgraph.floorplan.window;rotation=90;" vertex="1" parent="1">
          <mxGeometry x="1925" y="1275" width="240" height="10" as="geometry" />
        </mxCell>
        <mxCell id="nHqA-4sxTTQiNWwl88GU-15" value="" style="verticalLabelPosition=bottom;html=1;verticalAlign=top;align=center;shape=mxgraph.floorplan.window;rotation=90;" vertex="1" parent="1">
          <mxGeometry x="1925" y="1950" width="240" height="10" as="geometry" />
        </mxCell>
        <mxCell id="nHqA-4sxTTQiNWwl88GU-16" value="" style="verticalLabelPosition=bottom;html=1;verticalAlign=top;align=center;shape=mxgraph.floorplan.table;" vertex="1" parent="1">
          <mxGeometry x="2065" y="1320" width="50" height="60" as="geometry" />
        </mxCell>
        <mxCell id="nHqA-4sxTTQiNWwl88GU-17" value="" style="verticalLabelPosition=bottom;html=1;verticalAlign=top;align=center;shape=mxgraph.floorplan.table;" vertex="1" parent="1">
          <mxGeometry x="2065" y="1560.75" width="100" height="50" as="geometry" />
        </mxCell>
        <mxCell id="nHqA-4sxTTQiNWwl88GU-18" value="" style="verticalLabelPosition=bottom;html=1;verticalAlign=top;align=center;shape=mxgraph.floorplan.table;" vertex="1" parent="1">
          <mxGeometry x="2065" y="1710" width="100" height="50" as="geometry" />
        </mxCell>
        <mxCell id="nHqA-4sxTTQiNWwl88GU-19" value="" style="verticalLabelPosition=bottom;html=1;verticalAlign=top;align=center;shape=mxgraph.floorplan.table;" vertex="1" parent="1">
          <mxGeometry x="2065" y="1910" width="100" height="50" as="geometry" />
        </mxCell>
        <mxCell id="nHqA-4sxTTQiNWwl88GU-20" value="" style="verticalLabelPosition=bottom;html=1;verticalAlign=top;align=center;shape=mxgraph.floorplan.window;rotation=90;" vertex="1" parent="1">
          <mxGeometry x="1925" y="1620" width="240" height="10" as="geometry" />
        </mxCell>
        <mxCell id="nHqA-4sxTTQiNWwl88GU-21" value="" style="verticalLabelPosition=bottom;html=1;verticalAlign=top;align=center;shape=mxgraph.floorplan.table;" vertex="1" parent="1">
          <mxGeometry x="2165" y="1560.75" width="100" height="50" as="geometry" />
        </mxCell>
        <mxCell id="nHqA-4sxTTQiNWwl88GU-22" value="" style="verticalLabelPosition=bottom;html=1;verticalAlign=top;align=center;shape=mxgraph.floorplan.table;" vertex="1" parent="1">
          <mxGeometry x="2165" y="1710" width="100" height="50" as="geometry" />
        </mxCell>
        <mxCell id="nHqA-4sxTTQiNWwl88GU-23" value="" style="verticalLabelPosition=bottom;html=1;verticalAlign=top;align=center;shape=mxgraph.floorplan.table;" vertex="1" parent="1">
          <mxGeometry x="2170" y="1400" width="100" height="50" as="geometry" />
        </mxCell>
        <mxCell id="nHqA-4sxTTQiNWwl88GU-24" value="" style="verticalLabelPosition=bottom;html=1;verticalAlign=top;align=center;shape=mxgraph.floorplan.table;" vertex="1" parent="1">
          <mxGeometry x="2170" y="1910" width="100" height="50" as="geometry" />
        </mxCell>
        <mxCell id="nHqA-4sxTTQiNWwl88GU-25" value="" style="verticalLabelPosition=bottom;html=1;verticalAlign=top;align=center;shape=mxgraph.floorplan.table;" vertex="1" parent="1">
          <mxGeometry x="2390" y="1400" width="100" height="50" as="geometry" />
        </mxCell>
        <mxCell id="nHqA-4sxTTQiNWwl88GU-26" value="" style="verticalLabelPosition=bottom;html=1;verticalAlign=top;align=center;shape=mxgraph.floorplan.table;" vertex="1" parent="1">
          <mxGeometry x="2390" y="1560.75" width="100" height="50" as="geometry" />
        </mxCell>
        <mxCell id="nHqA-4sxTTQiNWwl88GU-27" value="" style="verticalLabelPosition=bottom;html=1;verticalAlign=top;align=center;shape=mxgraph.floorplan.table;" vertex="1" parent="1">
          <mxGeometry x="2390" y="1710" width="100" height="50" as="geometry" />
        </mxCell>
        <mxCell id="nHqA-4sxTTQiNWwl88GU-28" value="" style="verticalLabelPosition=bottom;html=1;verticalAlign=top;align=center;shape=mxgraph.floorplan.table;" vertex="1" parent="1">
          <mxGeometry x="2390" y="1910" width="100" height="50" as="geometry" />
        </mxCell>
        <mxCell id="nHqA-4sxTTQiNWwl88GU-29" value="" style="verticalLabelPosition=bottom;html=1;verticalAlign=top;align=center;shape=mxgraph.floorplan.table;" vertex="1" parent="1">
          <mxGeometry x="2490" y="1560.75" width="100" height="50" as="geometry" />
        </mxCell>
        <mxCell id="nHqA-4sxTTQiNWwl88GU-30" value="" style="verticalLabelPosition=bottom;html=1;verticalAlign=top;align=center;shape=mxgraph.floorplan.table;" vertex="1" parent="1">
          <mxGeometry x="2490" y="1710" width="100" height="50" as="geometry" />
        </mxCell>
        <mxCell id="nHqA-4sxTTQiNWwl88GU-31" value="" style="verticalLabelPosition=bottom;html=1;verticalAlign=top;align=center;shape=mxgraph.floorplan.table;" vertex="1" parent="1">
          <mxGeometry x="2495" y="1400" width="100" height="50" as="geometry" />
        </mxCell>
        <mxCell id="nHqA-4sxTTQiNWwl88GU-32" value="" style="verticalLabelPosition=bottom;html=1;verticalAlign=top;align=center;shape=mxgraph.floorplan.table;" vertex="1" parent="1">
          <mxGeometry x="2495" y="1910" width="100" height="50" as="geometry" />
        </mxCell>
        <mxCell id="nHqA-4sxTTQiNWwl88GU-33" value="" style="verticalLabelPosition=bottom;html=1;verticalAlign=top;align=center;shape=mxgraph.floorplan.toilet;rotation=-180;" vertex="1" parent="1">
          <mxGeometry x="2090" y="1460" width="50" height="67" as="geometry" />
        </mxCell>
        <mxCell id="nHqA-4sxTTQiNWwl88GU-34" value="" style="verticalLabelPosition=bottom;html=1;verticalAlign=top;align=center;shape=mxgraph.floorplan.toilet;rotation=-180;" vertex="1" parent="1">
          <mxGeometry x="2190" y="1460" width="50" height="67" as="geometry" />
        </mxCell>
        <mxCell id="nHqA-4sxTTQiNWwl88GU-35" value="" style="verticalLabelPosition=bottom;html=1;verticalAlign=top;align=center;shape=mxgraph.floorplan.toilet;rotation=-180;" vertex="1" parent="1">
          <mxGeometry x="2090" y="1620.75" width="50" height="67" as="geometry" />
        </mxCell>
        <mxCell id="nHqA-4sxTTQiNWwl88GU-36" value="" style="verticalLabelPosition=bottom;html=1;verticalAlign=top;align=center;shape=mxgraph.floorplan.toilet;rotation=-180;" vertex="1" parent="1">
          <mxGeometry x="2190" y="1620.75" width="50" height="67" as="geometry" />
        </mxCell>
        <mxCell id="nHqA-4sxTTQiNWwl88GU-37" value="" style="verticalLabelPosition=bottom;html=1;verticalAlign=top;align=center;shape=mxgraph.floorplan.toilet;rotation=-180;" vertex="1" parent="1">
          <mxGeometry x="2420" y="1461.5" width="50" height="67" as="geometry" />
        </mxCell>
        <mxCell id="nHqA-4sxTTQiNWwl88GU-38" value="" style="verticalLabelPosition=bottom;html=1;verticalAlign=top;align=center;shape=mxgraph.floorplan.toilet;rotation=-180;" vertex="1" parent="1">
          <mxGeometry x="2520" y="1461.5" width="50" height="67" as="geometry" />
        </mxCell>
        <mxCell id="nHqA-4sxTTQiNWwl88GU-39" value="" style="verticalLabelPosition=bottom;html=1;verticalAlign=top;align=center;shape=mxgraph.floorplan.toilet;rotation=-180;" vertex="1" parent="1">
          <mxGeometry x="2420" y="1622.25" width="50" height="67" as="geometry" />
        </mxCell>
        <mxCell id="nHqA-4sxTTQiNWwl88GU-40" value="" style="verticalLabelPosition=bottom;html=1;verticalAlign=top;align=center;shape=mxgraph.floorplan.toilet;rotation=-180;" vertex="1" parent="1">
          <mxGeometry x="2520" y="1622.25" width="50" height="67" as="geometry" />
        </mxCell>
        <mxCell id="nHqA-4sxTTQiNWwl88GU-43" value="" style="verticalLabelPosition=bottom;html=1;verticalAlign=top;align=center;shape=mxgraph.floorplan.toilet;rotation=-180;" vertex="1" parent="1">
          <mxGeometry x="2090" y="1800" width="50" height="67" as="geometry" />
        </mxCell>
        <mxCell id="nHqA-4sxTTQiNWwl88GU-44" value="" style="verticalLabelPosition=bottom;html=1;verticalAlign=top;align=center;shape=mxgraph.floorplan.toilet;rotation=-180;" vertex="1" parent="1">
          <mxGeometry x="2190" y="1800" width="50" height="67" as="geometry" />
        </mxCell>
        <mxCell id="nHqA-4sxTTQiNWwl88GU-45" value="" style="verticalLabelPosition=bottom;html=1;verticalAlign=top;align=center;shape=mxgraph.floorplan.toilet;rotation=-180;" vertex="1" parent="1">
          <mxGeometry x="2090" y="1960" width="50" height="67" as="geometry" />
        </mxCell>
        <mxCell id="nHqA-4sxTTQiNWwl88GU-46" value="" style="verticalLabelPosition=bottom;html=1;verticalAlign=top;align=center;shape=mxgraph.floorplan.toilet;rotation=-180;" vertex="1" parent="1">
          <mxGeometry x="2190" y="1960" width="50" height="67" as="geometry" />
        </mxCell>
        <mxCell id="nHqA-4sxTTQiNWwl88GU-47" value="" style="verticalLabelPosition=bottom;html=1;verticalAlign=top;align=center;shape=mxgraph.floorplan.toilet;rotation=-180;" vertex="1" parent="1">
          <mxGeometry x="2420" y="1801.5" width="50" height="67" as="geometry" />
        </mxCell>
        <mxCell id="nHqA-4sxTTQiNWwl88GU-48" value="" style="verticalLabelPosition=bottom;html=1;verticalAlign=top;align=center;shape=mxgraph.floorplan.toilet;rotation=-180;" vertex="1" parent="1">
          <mxGeometry x="2520" y="1801.5" width="50" height="67" as="geometry" />
        </mxCell>
        <mxCell id="nHqA-4sxTTQiNWwl88GU-49" value="" style="verticalLabelPosition=bottom;html=1;verticalAlign=top;align=center;shape=mxgraph.floorplan.toilet;rotation=-180;" vertex="1" parent="1">
          <mxGeometry x="2420" y="1961.5" width="50" height="67" as="geometry" />
        </mxCell>
        <mxCell id="nHqA-4sxTTQiNWwl88GU-50" value="" style="verticalLabelPosition=bottom;html=1;verticalAlign=top;align=center;shape=mxgraph.floorplan.toilet;rotation=-180;" vertex="1" parent="1">
          <mxGeometry x="2520" y="1961.5" width="50" height="67" as="geometry" />
        </mxCell>
        <mxCell id="nHqA-4sxTTQiNWwl88GU-51" value="" style="html=1;verticalLabelPosition=bottom;align=center;labelBackgroundColor=#ffffff;verticalAlign=top;strokeWidth=2;strokeColor=#0080F0;shadow=0;dashed=0;shape=mxgraph.ios7.icons.monitor;rotation=0;" vertex="1" parent="1">
          <mxGeometry x="2070" y="1410" width="40" height="29.5" as="geometry" />
        </mxCell>
        <mxCell id="nHqA-4sxTTQiNWwl88GU-52" value="" style="html=1;verticalLabelPosition=bottom;align=center;labelBackgroundColor=#ffffff;verticalAlign=top;strokeWidth=2;strokeColor=#0080F0;shadow=0;dashed=0;shape=mxgraph.ios7.icons.monitor;rotation=0;" vertex="1" parent="1">
          <mxGeometry x="2115" y="1410" width="40" height="29.5" as="geometry" />
        </mxCell>
        <mxCell id="nHqA-4sxTTQiNWwl88GU-53" value="" style="html=1;verticalLabelPosition=bottom;align=center;labelBackgroundColor=#ffffff;verticalAlign=top;strokeWidth=2;strokeColor=#0080F0;shadow=0;dashed=0;shape=mxgraph.ios7.icons.monitor;rotation=0;" vertex="1" parent="1">
          <mxGeometry x="2172.5" y="1410.25" width="40" height="29.5" as="geometry" />
        </mxCell>
        <mxCell id="nHqA-4sxTTQiNWwl88GU-54" value="" style="html=1;verticalLabelPosition=bottom;align=center;labelBackgroundColor=#ffffff;verticalAlign=top;strokeWidth=2;strokeColor=#0080F0;shadow=0;dashed=0;shape=mxgraph.ios7.icons.monitor;rotation=0;" vertex="1" parent="1">
          <mxGeometry x="2217.5" y="1410.25" width="40" height="29.5" as="geometry" />
        </mxCell>
        <mxCell id="nHqA-4sxTTQiNWwl88GU-55" value="" style="html=1;verticalLabelPosition=bottom;align=center;labelBackgroundColor=#ffffff;verticalAlign=top;strokeWidth=2;strokeColor=#0080F0;shadow=0;dashed=0;shape=mxgraph.ios7.icons.monitor;rotation=0;" vertex="1" parent="1">
          <mxGeometry x="2070" y="1570.87" width="40" height="29.5" as="geometry" />
        </mxCell>
        <mxCell id="nHqA-4sxTTQiNWwl88GU-56" value="" style="html=1;verticalLabelPosition=bottom;align=center;labelBackgroundColor=#ffffff;verticalAlign=top;strokeWidth=2;strokeColor=#0080F0;shadow=0;dashed=0;shape=mxgraph.ios7.icons.monitor;rotation=0;" vertex="1" parent="1">
          <mxGeometry x="2115" y="1570.87" width="40" height="29.5" as="geometry" />
        </mxCell>
        <mxCell id="nHqA-4sxTTQiNWwl88GU-57" value="" style="html=1;verticalLabelPosition=bottom;align=center;labelBackgroundColor=#ffffff;verticalAlign=top;strokeWidth=2;strokeColor=#0080F0;shadow=0;dashed=0;shape=mxgraph.ios7.icons.monitor;rotation=0;" vertex="1" parent="1">
          <mxGeometry x="2172.5" y="1571.12" width="40" height="29.5" as="geometry" />
        </mxCell>
        <mxCell id="nHqA-4sxTTQiNWwl88GU-58" value="" style="html=1;verticalLabelPosition=bottom;align=center;labelBackgroundColor=#ffffff;verticalAlign=top;strokeWidth=2;strokeColor=#0080F0;shadow=0;dashed=0;shape=mxgraph.ios7.icons.monitor;rotation=0;" vertex="1" parent="1">
          <mxGeometry x="2217.5" y="1571.12" width="40" height="29.5" as="geometry" />
        </mxCell>
        <mxCell id="nHqA-4sxTTQiNWwl88GU-59" value="" style="html=1;verticalLabelPosition=bottom;align=center;labelBackgroundColor=#ffffff;verticalAlign=top;strokeWidth=2;strokeColor=#0080F0;shadow=0;dashed=0;shape=mxgraph.ios7.icons.monitor;rotation=0;" vertex="1" parent="1">
          <mxGeometry x="2070" y="1719.38" width="40" height="29.5" as="geometry" />
        </mxCell>
        <mxCell id="nHqA-4sxTTQiNWwl88GU-60" value="" style="html=1;verticalLabelPosition=bottom;align=center;labelBackgroundColor=#ffffff;verticalAlign=top;strokeWidth=2;strokeColor=#0080F0;shadow=0;dashed=0;shape=mxgraph.ios7.icons.monitor;rotation=0;" vertex="1" parent="1">
          <mxGeometry x="2115" y="1719.38" width="40" height="29.5" as="geometry" />
        </mxCell>
        <mxCell id="nHqA-4sxTTQiNWwl88GU-61" value="" style="html=1;verticalLabelPosition=bottom;align=center;labelBackgroundColor=#ffffff;verticalAlign=top;strokeWidth=2;strokeColor=#0080F0;shadow=0;dashed=0;shape=mxgraph.ios7.icons.monitor;rotation=0;" vertex="1" parent="1">
          <mxGeometry x="2172.5" y="1719.63" width="40" height="29.5" as="geometry" />
        </mxCell>
        <mxCell id="nHqA-4sxTTQiNWwl88GU-62" value="" style="html=1;verticalLabelPosition=bottom;align=center;labelBackgroundColor=#ffffff;verticalAlign=top;strokeWidth=2;strokeColor=#0080F0;shadow=0;dashed=0;shape=mxgraph.ios7.icons.monitor;rotation=0;" vertex="1" parent="1">
          <mxGeometry x="2217.5" y="1719.63" width="40" height="29.5" as="geometry" />
        </mxCell>
        <mxCell id="nHqA-4sxTTQiNWwl88GU-63" value="" style="html=1;verticalLabelPosition=bottom;align=center;labelBackgroundColor=#ffffff;verticalAlign=top;strokeWidth=2;strokeColor=#0080F0;shadow=0;dashed=0;shape=mxgraph.ios7.icons.monitor;rotation=0;" vertex="1" parent="1">
          <mxGeometry x="2070" y="1920.25" width="40" height="29.5" as="geometry" />
        </mxCell>
        <mxCell id="nHqA-4sxTTQiNWwl88GU-64" value="" style="html=1;verticalLabelPosition=bottom;align=center;labelBackgroundColor=#ffffff;verticalAlign=top;strokeWidth=2;strokeColor=#0080F0;shadow=0;dashed=0;shape=mxgraph.ios7.icons.monitor;rotation=0;" vertex="1" parent="1">
          <mxGeometry x="2115" y="1920.25" width="40" height="29.5" as="geometry" />
        </mxCell>
        <mxCell id="nHqA-4sxTTQiNWwl88GU-65" value="" style="html=1;verticalLabelPosition=bottom;align=center;labelBackgroundColor=#ffffff;verticalAlign=top;strokeWidth=2;strokeColor=#0080F0;shadow=0;dashed=0;shape=mxgraph.ios7.icons.monitor;rotation=0;" vertex="1" parent="1">
          <mxGeometry x="2172.5" y="1920.5" width="40" height="29.5" as="geometry" />
        </mxCell>
        <mxCell id="nHqA-4sxTTQiNWwl88GU-66" value="" style="html=1;verticalLabelPosition=bottom;align=center;labelBackgroundColor=#ffffff;verticalAlign=top;strokeWidth=2;strokeColor=#0080F0;shadow=0;dashed=0;shape=mxgraph.ios7.icons.monitor;rotation=0;" vertex="1" parent="1">
          <mxGeometry x="2217.5" y="1920.5" width="40" height="29.5" as="geometry" />
        </mxCell>
        <mxCell id="nHqA-4sxTTQiNWwl88GU-68" value="" style="html=1;verticalLabelPosition=bottom;align=center;labelBackgroundColor=#ffffff;verticalAlign=top;strokeWidth=2;strokeColor=#0080F0;shadow=0;dashed=0;shape=mxgraph.ios7.icons.monitor;rotation=0;" vertex="1" parent="1">
          <mxGeometry x="2395" y="1409.75" width="40" height="29.5" as="geometry" />
        </mxCell>
        <mxCell id="nHqA-4sxTTQiNWwl88GU-69" value="" style="html=1;verticalLabelPosition=bottom;align=center;labelBackgroundColor=#ffffff;verticalAlign=top;strokeWidth=2;strokeColor=#0080F0;shadow=0;dashed=0;shape=mxgraph.ios7.icons.monitor;rotation=0;" vertex="1" parent="1">
          <mxGeometry x="2440" y="1409.75" width="40" height="29.5" as="geometry" />
        </mxCell>
        <mxCell id="nHqA-4sxTTQiNWwl88GU-70" value="" style="html=1;verticalLabelPosition=bottom;align=center;labelBackgroundColor=#ffffff;verticalAlign=top;strokeWidth=2;strokeColor=#0080F0;shadow=0;dashed=0;shape=mxgraph.ios7.icons.monitor;rotation=0;" vertex="1" parent="1">
          <mxGeometry x="2497.5" y="1410" width="40" height="29.5" as="geometry" />
        </mxCell>
        <mxCell id="nHqA-4sxTTQiNWwl88GU-71" value="" style="html=1;verticalLabelPosition=bottom;align=center;labelBackgroundColor=#ffffff;verticalAlign=top;strokeWidth=2;strokeColor=#0080F0;shadow=0;dashed=0;shape=mxgraph.ios7.icons.monitor;rotation=0;" vertex="1" parent="1">
          <mxGeometry x="2542.5" y="1410" width="40" height="29.5" as="geometry" />
        </mxCell>
        <mxCell id="nHqA-4sxTTQiNWwl88GU-72" value="" style="html=1;verticalLabelPosition=bottom;align=center;labelBackgroundColor=#ffffff;verticalAlign=top;strokeWidth=2;strokeColor=#0080F0;shadow=0;dashed=0;shape=mxgraph.ios7.icons.monitor;rotation=0;" vertex="1" parent="1">
          <mxGeometry x="2395" y="1570.62" width="40" height="29.5" as="geometry" />
        </mxCell>
        <mxCell id="nHqA-4sxTTQiNWwl88GU-73" value="" style="html=1;verticalLabelPosition=bottom;align=center;labelBackgroundColor=#ffffff;verticalAlign=top;strokeWidth=2;strokeColor=#0080F0;shadow=0;dashed=0;shape=mxgraph.ios7.icons.monitor;rotation=0;" vertex="1" parent="1">
          <mxGeometry x="2440" y="1570.62" width="40" height="29.5" as="geometry" />
        </mxCell>
        <mxCell id="nHqA-4sxTTQiNWwl88GU-74" value="" style="html=1;verticalLabelPosition=bottom;align=center;labelBackgroundColor=#ffffff;verticalAlign=top;strokeWidth=2;strokeColor=#0080F0;shadow=0;dashed=0;shape=mxgraph.ios7.icons.monitor;rotation=0;" vertex="1" parent="1">
          <mxGeometry x="2542.5" y="1570.87" width="40" height="29.5" as="geometry" />
        </mxCell>
        <mxCell id="nHqA-4sxTTQiNWwl88GU-75" value="" style="html=1;verticalLabelPosition=bottom;align=center;labelBackgroundColor=#ffffff;verticalAlign=top;strokeWidth=2;strokeColor=#0080F0;shadow=0;dashed=0;shape=mxgraph.ios7.icons.monitor;rotation=0;" vertex="1" parent="1">
          <mxGeometry x="2395" y="1719.13" width="40" height="29.5" as="geometry" />
        </mxCell>
        <mxCell id="nHqA-4sxTTQiNWwl88GU-76" value="" style="html=1;verticalLabelPosition=bottom;align=center;labelBackgroundColor=#ffffff;verticalAlign=top;strokeWidth=2;strokeColor=#0080F0;shadow=0;dashed=0;shape=mxgraph.ios7.icons.monitor;rotation=0;" vertex="1" parent="1">
          <mxGeometry x="2440" y="1719.13" width="40" height="29.5" as="geometry" />
        </mxCell>
        <mxCell id="nHqA-4sxTTQiNWwl88GU-77" value="" style="html=1;verticalLabelPosition=bottom;align=center;labelBackgroundColor=#ffffff;verticalAlign=top;strokeWidth=2;strokeColor=#0080F0;shadow=0;dashed=0;shape=mxgraph.ios7.icons.monitor;rotation=0;" vertex="1" parent="1">
          <mxGeometry x="2497.5" y="1719.38" width="40" height="29.5" as="geometry" />
        </mxCell>
        <mxCell id="nHqA-4sxTTQiNWwl88GU-78" value="" style="html=1;verticalLabelPosition=bottom;align=center;labelBackgroundColor=#ffffff;verticalAlign=top;strokeWidth=2;strokeColor=#0080F0;shadow=0;dashed=0;shape=mxgraph.ios7.icons.monitor;rotation=0;" vertex="1" parent="1">
          <mxGeometry x="2542.5" y="1719.38" width="40" height="29.5" as="geometry" />
        </mxCell>
        <mxCell id="nHqA-4sxTTQiNWwl88GU-79" value="" style="html=1;verticalLabelPosition=bottom;align=center;labelBackgroundColor=#ffffff;verticalAlign=top;strokeWidth=2;strokeColor=#0080F0;shadow=0;dashed=0;shape=mxgraph.ios7.icons.monitor;rotation=0;" vertex="1" parent="1">
          <mxGeometry x="2395" y="1920" width="40" height="29.5" as="geometry" />
        </mxCell>
        <mxCell id="nHqA-4sxTTQiNWwl88GU-80" value="" style="html=1;verticalLabelPosition=bottom;align=center;labelBackgroundColor=#ffffff;verticalAlign=top;strokeWidth=2;strokeColor=#0080F0;shadow=0;dashed=0;shape=mxgraph.ios7.icons.monitor;rotation=0;" vertex="1" parent="1">
          <mxGeometry x="2440" y="1920" width="40" height="29.5" as="geometry" />
        </mxCell>
        <mxCell id="nHqA-4sxTTQiNWwl88GU-81" value="" style="html=1;verticalLabelPosition=bottom;align=center;labelBackgroundColor=#ffffff;verticalAlign=top;strokeWidth=2;strokeColor=#0080F0;shadow=0;dashed=0;shape=mxgraph.ios7.icons.monitor;rotation=0;" vertex="1" parent="1">
          <mxGeometry x="2497.5" y="1920.25" width="40" height="29.5" as="geometry" />
        </mxCell>
        <mxCell id="nHqA-4sxTTQiNWwl88GU-82" value="" style="html=1;verticalLabelPosition=bottom;align=center;labelBackgroundColor=#ffffff;verticalAlign=top;strokeWidth=2;strokeColor=#0080F0;shadow=0;dashed=0;shape=mxgraph.ios7.icons.monitor;rotation=0;" vertex="1" parent="1">
          <mxGeometry x="2542.5" y="1920.25" width="40" height="29.5" as="geometry" />
        </mxCell>
        <mxCell id="nHqA-4sxTTQiNWwl88GU-83" value="" style="html=1;verticalLabelPosition=bottom;align=center;labelBackgroundColor=#ffffff;verticalAlign=top;strokeWidth=2;strokeColor=#0080F0;shadow=0;dashed=0;shape=mxgraph.ios7.icons.monitor;rotation=0;" vertex="1" parent="1">
          <mxGeometry x="2497.5" y="1570.62" width="40" height="29.5" as="geometry" />
        </mxCell>
      </root>
    </mxGraphModel>
  </diagram>
</mxfile>
